  <svg xmlns="http://www.w3.org/2000/svg"  viewBox="0 0 660.52 262.96" id="appsilon-logo">
    <g >
      <path d="M278.9 142h-22.08l-4.26 12.77H239l22.35-59.14H277l21 59.17h-14.76zm-3.55-10.55l-7.54-22.35-7.45 22.35zm68.65-17.4q5.94 5.64 5.94 18.76 0 10.55-5.32 16.94t-14.54 6.38a23.94 23.94 0 01-11.26-2.39v17.11h-12.97v-51.43q0-5.42 6-8.16t15.38-2.84q10.77 0 16.77 5.63zm-9.84 28.42q2.57-3 2.57-10.1 0-6.39-2.26-9.63t-7.76-3.23q-7.89 0-7.89 3v21.11a11.84 11.84 0 003.55 1.42 17.48 17.48 0 003.81.44c3.58.01 6.24-.99 7.96-3.01zm62.23-28.42q5.94 5.64 5.94 18.76 0 10.55-5.32 16.94t-14.55 6.38a24 24 0 01-11.26-2.39v17.11h-12.94v-51.43q0-5.42 6-8.16t15.39-2.84q10.79 0 16.74 5.63zm-9.84 28.42q2.56-3 2.57-10.1c0-4.26-.76-7.47-2.26-9.63s-4.1-3.23-7.76-3.23c-5.26 0-7.9 1-7.9 3v21.11a12 12 0 003.55 1.42 17.5 17.5 0 003.82.44c3.6.01 6.26-.99 7.98-3.01zm31.74 12.82a58.44 58.44 0 01-7.09-2.44v-11.62a24.64 24.64 0 0015.07 5.41 7.46 7.46 0 004.39-1 3.3 3.3 0 001.37-2.79 3.21 3.21 0 00-2.21-3 44.32 44.32 0 00-7.1-2.12 16.78 16.78 0 01-8.46-4.26q-3.33-3.19-3.33-9.31a13.48 13.48 0 012.66-8.6 15.39 15.39 0 016.69-4.92 23.08 23.08 0 018.39-1.56 32.51 32.51 0 018.64.94 25.83 25.83 0 016.52 2.88v10.37c-3-1.65-5.35-2.84-7-3.55a14.69 14.69 0 00-5.76-1.06 9.22 9.22 0 00-4.88 1 3.23 3.23 0 00-1.59 2.88 3.47 3.47 0 001.77 3.24 25.74 25.74 0 005.67 2.08 50.69 50.69 0 017 2.26 11.58 11.58 0 014.61 3.82q2 2.7 2 7.58-.18 7.62-5.76 11.13t-14.19 3.5a29.46 29.46 0 01-7.41-.86zm37.78-61.67h13.65v10.19h-13.65zm.26 16.93h13.21l.09 44.25h-13.3zm25.98 44.25V93h13.12v61.8zm28.91-4.7q-5.69-6-5.68-17.91 0-12.42 5.63-18.09t17.07-5.68q11.44 0 17.21 5.81t5.76 18q0 11.7-5.94 17.82t-17 6.12q-11.38-.04-17.05-6.07zm24.38-7.94q2.49-3.41 2.49-10 0-7.18-2.44-10.24t-7.41-3.06c-3.43 0-5.89 1-7.4 3.06s-2.26 5.45-2.26 10.24q0 6.83 2.35 10.11t7.31 3.28a8.51 8.51 0 007.36-3.39zm34.4-31.87a58.07 58.07 0 0112.68-1.6q9.48 0 14.27 3.72t4.79 12.24v30.15h-13.2v-27.49q0-7.71-8.69-7.71a19.12 19.12 0 00-4 .44 12.7 12.7 0 00-3.19 1.06v33.7h-13.21v-41.06a43.75 43.75 0 0110.55-3.45z"></path>
      <path d="M68.1 61v142.47l123.39-71.24zm38.51 71.23l-34 58.82V73.41zm2.62 0zm1.31 2.27h67.93L76.59 193.32zm0-4.55L76.59 71.14 178.46 130z" opacity=".7" fill="#8a8e91"></path>
      <path d="M64.87 54.33A11.84 11.84 0 1081 58.67a11.84 11.84 0 00-16.13-4.34zm38.68 67.01a11.84 11.84 0 1016.18 4.33 11.84 11.84 0 00-16.18-4.33zm-38.87 66.78a11.84 11.84 0 1016.18 4.34 11.84 11.84 0 00-16.18-4.34zm116.14-67.06A11.85 11.85 0 10197 125.4a11.85 11.85 0 00-16.18-4.34z"></path>
        </g>
  </svg>
