  <svg xmlns="http://www.w3.org/2000/svg" id="shiny-logo" viewBox="0 0 100 68">
    <path d="M55.096 10.462c1.338-1.374.14-3.699-1.322-3.136-1.482.572-1.92 1.303-1.885 2.431.14 1.32 1.198 2.502 3.207.705zM40.07 0c-.781-.02-1.798.303-3.088 1.13-3.35 2.151-5.555 8.884-6.865 12.882-1.165 3.553-5.785 22.437-5.785 22.437s3.039-.124 4.472-.31c.55-2.084 1.244-5.877 2.328-9.354.997-3.197 2.211-6.195 5.052-7.607 2.045-1.015 1.987.431 1.485 2.002-.696 2.179-2.66 8.604-2.15 12.081.403 2.761 3.02 3.408 5.25 1.47 2.818-2.446 4.574-6.03 4.574-6.03s-.356 4.813 1.99 5.44c3.023.808 6.572-4.766 7.12-6.01-.545 2.505-.977 3.765-.89 4.418 2.111-.14 3.217-.17 4.477-.293.29-1.902 1.594-9.587 3.285-12.665 1.368-2.493 2.42-4.464 4.564-4.822 1.392-.232 1.523.689.923 2.426-.723 2.09-1.95 7.958-2.246 10.885-.316 3.133 1.803 4.721 4.122 3.504 2.279-1.198 4.31-4.12 5.669-6.74.099 2.605.222 3.708 1.46 4.704 1.153.93 3.168.578 4.673-.666 1.6-1.322 2.573-2.89 3.57-4.157-.325 1.322-.935 3.806-1.308 4.999-1.577.635-4.086.447-6.88 1.675-2.311 1.018-3.936 3.264-3.46 5.09.593 2.27 2.413 2.754 4.784 2.654 4.872-.206 8.181-3.81 9.611-8.625 1.896-.899 3.185-1.84 5.332-3.455 1.93-1.452 3.033-2.6 3.558-2.397.478.187.184 1.696-1.085 3.264-1.308 1.616-4.97 5.795-6.827 7.771-3.052 3.25-7.598 6.779-16.742 7.923-6.623.828-21.972 1.665-31.614 1.943C21.025 46.097 8.04 49.436 0 54.107 12.609 53.825 21.681 62.174 24.775 68c2.22-6.65 5.244-10.736 13.781-14.612 9.53-4.326 23.42-5.355 31.442-6.077 7.596-.684 12.806-3.238 17.863-8.569 4.898-5.162 10.038-10.61 11.583-14.821 1.509-4.112-.174-5.455-3.588-2.392-3.338 2.996-5.754 5.804-8.444 7.075.716-3.445 1.27-5.48 2.217-8.992.9-3.34 2.068-8.27 4.087-9.69-2.09.167-4.518.069-5.632 1.271-1.053 1.137-1.583 3.794-2.5 6.406-.794 2.261-3.005 6.351-4.458 7.82-.743.752-2.637 2.495-2.488-1.093.15-3.586 1.103-5.848 1.85-7.89.747-2.043 1.545-3.759 2.737-4.888.468-.443.293-1.075-.648-.945-1.61.27-3.541.477-4.849 2.44-1.44 2.163-2.193 5.84-2.891 7.435-.698 1.594-2.212 4.811-4.318 6.58-.954.8-1.718.706-1.52-1.646.183-2.176 1.777-6.578 2.314-9.381.437-2.282-.199-4.048-2.64-3.9-2.838.173-5.413 2.2-6.726 3.75.102-.857.26-1.143.104-1.887-.183-.866-.599-1.007-1.633-1.007-1.2 0-2.977.135-2.977.135s.35 1.302.138 2.953c-.217 1.682-.502 3.448-1.115 4.844-.73 1.66-2.007 4.491-3.239 6.327-1.095 1.629-4.538 5.013-3.458-.66.732-3.842 3.259-10.651 4.666-12.155-2.013.077-2.976-.248-4.235.489-1.498.877-3.259 5.247-3.891 7.63-.665 2.513-3.235 7.053-4.112 7.971-1.764 1.845-2.56.974-2.272-1.221.287-2.17 1.6-6.52 2.37-9.24.777-2.73-.277-4.423-2.646-4.193-1.962.191-3.25 1.019-4.592 1.99.89-1.513 3.426-5.294 4.65-7.769 1.344-2.713 2.805-5.822 2.49-7.912C42.019 1.01 41.37.032 40.07 0zm-.294 1.612c.384-.055.621.301.574.862-.364 4.379-5.206 12.03-7.298 15.144.797-3.662 3.676-12.709 5.905-15.418.306-.373.588-.555.82-.588zm42.308 30.284c-.97 2.666-1.643 4.518-3.877 5.337-2.642.969-4.533-2.345-2.484-3.61 1.55-.959 6.361-1.727 6.361-1.727zm-75.011-3.47c-1.727 2.396-1.946 4.16-1.077 5.86.989 1.936 2.795 2.997 5.438 3.103 2.642.105 5.646-.368 7.935-1.636 3.434-1.902 6.303-6.676 4.404-11.343-2.196-5.4-5.51-6.943-7.45-9.903-1.445-2.202-.534-5.482.9-7.323.875-1.124 4.195-.723 4.89-.048.972.945.945 2.237 1.117 3.73.148 1.283.772 1.803 1.947.875 1.212-.957 2.59-2.226 2.332-3.782-.282-1.694-2.493-2.819-4.828-3.628-3.041-1.053-6.7.374-8.385 1.972-2.013 1.91-3.671 5.299-3.236 8.625.563 4.301 5.677 8.981 6.886 10.892 1.76 2.784 1.967 4.89.86 6.905-1.862 3.385-4.373 3.875-6.307 2.782-2.528-1.43-3.453-4.508-3.583-6.94-.106-1.585-.812-1.6-1.843-.14z"/>
  </svg>
